<svg width="36" height="36" viewBox="0 0 36 36" fill="none" xmlns="http://www.w3.org/2000/svg">
<path d="M23.4429 15.5486C22.6536 15.5486 21.9115 15.2413 21.3538 14.6832C20.7957 14.1251 20.4881 13.3835 20.4881 12.5942C20.4881 11.8053 20.7953 11.0632 21.3538 10.5051C21.9115 9.94704 22.6536 9.63983 23.4429 9.63983C24.2318 9.63983 24.9738 9.94704 25.5319 10.5051C26.6835 11.6572 26.6835 13.5316 25.5319 14.6832C24.9742 15.2413 24.2318 15.5486 23.4429 15.5486ZM23.4429 10.4276C22.8639 10.4276 22.32 10.6528 21.9107 11.0621C21.5015 11.4713 21.2758 12.0156 21.2758 12.5942C21.2758 13.1728 21.5011 13.7171 21.9107 14.1263C22.32 14.5355 22.8639 14.7608 23.4429 14.7608C24.0214 14.7608 24.5658 14.5355 24.975 14.1263C25.8198 13.2815 25.8198 11.9069 24.975 11.0621C24.5658 10.6528 24.0214 10.4276 23.4429 10.4276ZM21.6323 10.7836H21.6362H21.6323Z" fill="#331B3B"/>
<path d="M35.7215 2.66927C35.7219 2.49204 35.7207 2.31401 35.7164 2.1348C35.7144 2.03594 35.7105 1.93669 35.7069 1.83783C35.7026 1.71416 35.6987 1.59127 35.6924 1.46681C35.6802 1.22931 35.6648 0.99142 35.6447 0.751951C35.629 0.56014 35.4769 0.408109 35.2851 0.391961C35.0445 0.371874 34.8054 0.356513 34.5667 0.344304C34.4489 0.338002 34.332 0.334851 34.2146 0.330519C34.1087 0.32658 34.0023 0.322641 33.8968 0.320278C33.7246 0.316733 33.5537 0.315552 33.3832 0.315552C33.3532 0.315552 33.3237 0.315552 33.2938 0.315946C29.8069 0.334063 26.6083 1.20765 23.3716 3.01745C23.3676 3.01981 23.3657 3.02414 23.3617 3.02651C20.7508 4.48025 18.1423 6.53622 15.4392 9.23969C15.0906 9.58825 14.7479 9.94116 14.412 10.2968C14.399 10.2964 14.3872 10.2909 14.3738 10.2921L8.95935 10.7037C8.88373 10.7096 8.81087 10.7368 8.7506 10.7828L0.429077 17.1142C0.299496 17.2126 0.243962 17.3804 0.288862 17.5364C0.333762 17.6928 0.470039 17.8054 0.631916 17.82L8.58794 18.538L11.7857 21.7354C10.7432 21.7291 9.57063 22.2171 8.63323 23.1541C8.20865 23.5786 7.86796 24.0544 7.61982 24.5712C7.27244 25.3073 6.49968 27.2262 5.68123 29.2581L5.28737 30.2361C5.22829 30.3826 5.26256 30.5504 5.37402 30.6619C5.44925 30.7371 5.55008 30.7773 5.65248 30.7773C5.70211 30.7773 5.75213 30.7682 5.79979 30.7489L6.81162 30.3413C8.82819 29.5291 10.7325 28.7623 11.4675 28.4157C11.9811 28.1683 12.4572 27.828 12.8818 27.403C13.6247 26.6602 14.1158 25.748 14.2647 24.8343C14.297 24.6366 14.3084 24.4447 14.3076 24.2577L17.425 27.3739L18.1434 35.3307C18.158 35.4926 18.2707 35.6289 18.427 35.6738C18.4629 35.684 18.4999 35.6891 18.5357 35.6891C18.6566 35.6891 18.7736 35.6332 18.8492 35.5336L25.181 27.2124C25.2267 27.1522 25.2546 27.0797 25.2601 27.0041L25.6638 21.6956C26.0455 21.3368 26.424 20.9713 26.7978 20.5975C29.5016 17.8936 31.5576 15.2851 33.0117 12.6738C33.0137 12.6702 33.0177 12.6687 33.0196 12.6651C34.8314 9.4252 35.705 6.22428 35.7211 2.7315C35.7211 2.71102 35.7211 2.69015 35.7215 2.66927ZM34.3178 7.45195C34.3056 7.49803 34.2926 7.54372 34.28 7.5898C33.9141 8.90806 33.3662 10.3141 32.571 11.8112L24.2259 3.46606C25.7206 2.67203 27.1251 2.12496 28.4414 1.75906C28.491 1.74567 28.5406 1.73149 28.5902 1.7181C28.6875 1.69171 28.784 1.66768 28.8805 1.64366C30.8081 1.16787 32.7849 1.00796 34.8853 1.15212C35.0295 3.25022 34.87 5.22583 34.395 7.15143C34.3698 7.25108 34.345 7.35112 34.3178 7.45195ZM9.13501 11.4796L13.6408 11.1373C12.8287 12.0373 12.0622 12.9526 11.3458 13.8762C11.3446 13.8774 11.343 13.8782 11.3418 13.8794C11.3111 13.9188 11.2831 13.9582 11.2528 13.9975C11.022 14.2969 10.7951 14.5966 10.5758 14.8971C10.5316 14.9578 10.4899 15.018 10.4462 15.0783C10.239 15.365 10.0342 15.6518 9.83806 15.9385C9.75613 16.0582 9.68012 16.1768 9.60017 16.2961C9.44774 16.5238 9.29374 16.7518 9.1488 16.9795C8.98259 17.2394 8.82701 17.4974 8.67144 17.755L1.71386 17.1264L9.13501 11.4796ZM9.92589 17.2284C10.0236 17.0776 10.1256 16.9255 10.2272 16.7739C10.3308 16.6183 10.4355 16.4623 10.5427 16.3068C10.6754 16.1142 10.8109 15.9208 10.9491 15.7274C11.0232 15.6234 11.0988 15.5198 11.174 15.4162C11.3371 15.1921 11.5017 14.968 11.6723 14.7435C11.679 14.7349 11.6861 14.7258 11.6928 14.7171L21.3199 24.3443C21.3089 24.3526 21.2979 24.3612 21.2869 24.3699C21.0667 24.5369 20.8469 24.698 20.6271 24.8583C20.5196 24.9367 20.4121 25.0147 20.3046 25.0915C20.1139 25.2277 19.9237 25.3609 19.7342 25.4916C19.5736 25.6023 19.4129 25.7102 19.2522 25.817C19.1056 25.915 18.9587 26.0139 18.8126 26.1084C18.4967 26.3124 18.1809 26.5117 17.8666 26.7012L9.33549 18.1709C9.52415 17.8574 9.72266 17.5431 9.92589 17.2284ZM13.4876 24.7078C13.3651 25.4597 12.9523 26.2191 12.3253 26.8461C11.9633 27.2077 11.56 27.4972 11.1287 27.7044C10.4174 28.0403 8.43473 28.8383 6.5174 29.6106L6.3638 29.6725L6.41303 29.55C7.19051 27.6193 7.99439 25.6228 8.33075 24.9103C8.5391 24.4759 8.82859 24.0729 9.19015 23.7114C9.97237 22.9292 10.935 22.5085 11.7593 22.5085C12.2631 22.5085 12.7152 22.6653 13.0429 22.9934C13.4447 23.3943 13.6026 24.0028 13.4876 24.7078ZM24.4834 26.8284L18.8366 34.2488L18.2187 27.4042C18.4971 27.2372 18.7764 27.0679 19.0576 26.8879C19.2793 26.7465 19.5011 26.5964 19.7228 26.4483C19.8485 26.3644 19.9733 26.2845 20.0994 26.1978C20.3786 26.0068 20.6575 25.8075 20.9363 25.6062C21.0056 25.5562 21.0746 25.5086 21.1439 25.4582C21.4338 25.2467 21.7225 25.0277 22.0112 24.8055C22.06 24.7681 22.1088 24.7331 22.1577 24.6952C22.1593 24.6941 22.16 24.6917 22.1616 24.6905C23.0553 23.9973 23.9423 23.258 24.8143 22.4746L24.4834 26.8284ZM26.2409 20.0406C24.8568 21.4246 23.4121 22.7062 21.9489 23.8591L12.1776 14.0881C13.3304 12.6249 14.6121 11.1802 15.9965 9.79622C18.7149 7.07778 21.2148 5.17897 23.5086 3.86307L32.174 12.5284C30.8581 14.8223 28.9593 17.3221 26.2409 20.0406Z" fill="#331B3B"/>
</svg>
