<svg width="24" height="36" viewBox="0 0 24 36" fill="none" xmlns="http://www.w3.org/2000/svg">
<path d="M10.3561 21.39C8.72784 21.39 7.1 20.7701 5.86052 19.5306C3.38194 17.052 3.38194 13.0184 5.86052 10.5399C8.33949 8.06129 12.373 8.0609 14.8516 10.5399C17.3306 13.0184 17.3306 17.052 14.8516 19.5306C13.6121 20.7701 11.9839 21.39 10.3561 21.39ZM10.3557 9.46817C8.92949 9.46817 7.50292 10.0109 6.41705 11.0968C4.24529 13.2685 4.24529 16.8019 6.41705 18.9736C8.5888 21.1454 12.1225 21.1454 14.2943 18.9736C16.466 16.8019 16.466 13.2685 14.2943 11.0968C13.2084 10.0113 11.7822 9.46817 10.3557 9.46817Z" fill="#331B3B"/>
<path d="M23.2719 25.8646L18.0371 20.6294C17.559 20.1513 16.8335 20.0764 16.2706 20.3935L15.1154 19.2383C17.3195 16.7444 17.236 12.9247 14.8512 10.5402C12.373 8.06126 8.33903 8.06166 5.86006 10.5402C3.38149 13.0188 3.38149 17.0524 5.86006 19.5309C7.09955 20.77 8.72738 21.3904 10.3556 21.3904C11.8602 21.3904 13.3608 20.8539 14.5585 19.7956L15.7137 20.9508C15.3967 21.5136 15.4711 22.2387 15.9496 22.7173L21.1849 27.9521C21.4625 28.2302 21.8332 28.3834 22.2282 28.3834C22.6232 28.3834 22.9939 28.2302 23.2715 27.9521C23.5496 27.674 23.7028 27.3034 23.7028 26.9084C23.7028 26.5133 23.55 26.1423 23.2719 25.8646ZM6.41738 18.974C4.24562 16.8023 4.24562 13.2689 6.41738 11.0972C7.50326 10.0113 8.92943 9.46853 10.356 9.46853C11.7826 9.46853 13.2087 10.0113 14.2946 11.0972C16.4664 13.2689 16.4664 16.8023 14.2946 18.974C12.1229 21.1458 8.58874 21.1454 6.41738 18.974ZM22.715 27.3952C22.4566 27.6536 22.0005 27.6536 21.7418 27.3952L16.5066 22.16C16.2383 21.8913 16.2383 21.455 16.5066 21.1863C16.6409 21.0524 16.8169 20.9851 16.9934 20.9851C17.1694 20.9851 17.3459 21.052 17.4798 21.1863L22.7146 26.4216C22.8438 26.5507 22.9151 26.7236 22.9151 26.908C22.9151 27.0923 22.8442 27.2656 22.715 27.3952Z" fill="#331B3B"/>
<path d="M6.23426 17.2985C6.11492 17.2985 5.99715 17.2445 5.91995 17.1425C5.7888 16.9692 5.82267 16.7219 5.99636 16.5907L11.6802 12.289C11.7692 12.222 11.8819 12.1952 11.9913 12.2161C12.1004 12.237 12.1962 12.3028 12.2541 12.3977L14.0142 15.2827L14.6066 14.8573C14.7823 14.7297 15.0288 14.7707 15.1564 14.9475C15.2832 15.1244 15.2431 15.3702 15.0662 15.4974L14.1292 16.1705C14.0402 16.2343 13.928 16.2591 13.8216 16.2367C13.7141 16.215 13.6204 16.1492 13.5636 16.0559L11.809 13.1799L6.47215 17.2186C6.40047 17.2725 6.31697 17.2985 6.23426 17.2985Z" fill="#331B3B"/>
<path d="M20.5795 21.863C20.7973 21.863 20.9734 21.6869 20.9734 21.4691V2.24038C20.9734 1.15725 20.0923 0.276184 19.0092 0.276184H2.26058C1.17746 0.276184 0.296783 1.15725 0.296783 2.24038V33.76C0.296783 34.8427 1.17785 35.7238 2.26058 35.7238H19.0088C20.0919 35.7238 20.973 34.8427 20.973 33.76V28.975C20.973 28.7572 20.7969 28.5811 20.5791 28.5811C20.3613 28.5811 20.1853 28.7572 20.1853 28.975V29.9931H1.08451V18.3108L2.10461 19.9803C2.16251 20.0753 2.25822 20.141 2.36732 20.1619C2.39174 20.1666 2.41616 20.169 2.44058 20.169C2.52565 20.169 2.60915 20.1414 2.67847 20.0894L3.92701 19.145C4.10031 19.0134 4.13458 18.7665 4.00342 18.5932C3.87187 18.4199 3.62492 18.3856 3.45162 18.5167L2.55007 19.1989L1.08451 16.8003V4.79457H20.1857V10.8498L17.3479 12.8888C17.171 13.0157 17.1305 13.2618 17.2577 13.4387C17.3345 13.5458 17.4554 13.6029 17.5779 13.6029C17.6575 13.6029 17.7378 13.5789 17.8071 13.5289L20.1857 11.8199V21.4695C20.1857 21.6865 20.3617 21.863 20.5795 21.863ZM20.1857 30.7808V33.7596C20.1857 34.4079 19.6579 34.9357 19.0092 34.9357H2.26058C1.61228 34.9357 1.08451 34.4079 1.08451 33.7596V30.7808H20.1857ZM1.08451 4.00685V2.24038C1.08451 1.59168 1.61228 1.06391 2.26058 1.06391H19.0088C19.6575 1.06391 20.1853 1.59168 20.1853 2.24038V4.00685H1.08451Z" fill="#331B3B"/>
<path d="M10.6349 34.278C9.86372 34.278 9.2363 33.6505 9.2363 32.8793C9.2363 32.1082 9.86372 31.4803 10.6349 31.4803C11.4061 31.4803 12.0335 32.1082 12.0335 32.8793C12.0335 33.6505 11.4061 34.278 10.6349 34.278ZM10.6349 32.2685C10.2982 32.2685 10.024 32.5426 10.024 32.8797C10.024 33.2169 10.2982 33.4906 10.6349 33.4906C10.9717 33.4906 11.2458 33.2169 11.2458 32.8797C11.2458 32.5426 10.9721 32.2685 10.6349 32.2685Z" fill="#331B3B"/>
<path d="M13.032 2.90247H8.23786C8.02044 2.90247 7.84399 2.72602 7.84399 2.50861C7.84399 2.2912 8.02044 2.11475 8.23786 2.11475H13.032C13.2498 2.11475 13.4258 2.2912 13.4258 2.50861C13.4258 2.72602 13.2498 2.90247 13.032 2.90247Z" fill="#331B3B"/>
</svg>
