<svg width="34" height="32" viewBox="0 0 34 32" fill="none" xmlns="http://www.w3.org/2000/svg">
<path d="M33.7392 20.1572H0.260849V2.70053C0.260849 1.58867 1.16514 0.684387 2.27699 0.684387H31.723C32.8345 0.684387 33.7392 1.58867 33.7392 2.70053V20.1572ZM1.00481 19.4133H32.9952V2.70053C32.9952 1.99897 32.4246 1.42835 31.723 1.42835H2.27699C1.57543 1.42835 1.00481 1.99897 1.00481 2.70053V19.4133Z" fill="#331B3B"/>
<path d="M31.723 24.7787H2.27699C1.16514 24.7787 0.260849 23.8741 0.260849 22.7626V19.4133H33.7392V22.7626C33.7392 23.8741 32.8345 24.7787 31.723 24.7787ZM1.00481 20.1572V22.7626C1.00481 23.4641 1.57543 24.0348 2.27699 24.0348H31.723C32.4246 24.0348 32.9952 23.4641 32.9952 22.7626V20.1572H1.00481Z" fill="#331B3B"/>
<path d="M22.1426 29.3775H11.8574C11.6967 29.3775 11.5542 29.2745 11.504 29.1216C11.4538 28.9687 11.5077 28.8013 11.6371 28.7061C13.0499 27.6687 13.9929 26.0837 14.2243 24.3577C14.2488 24.1732 14.4065 24.0352 14.5929 24.0352H19.4063C19.5927 24.0352 19.7504 24.1728 19.775 24.3577C20.0063 26.084 20.9497 27.6687 22.3625 28.7061C22.4923 28.8013 22.5459 28.9687 22.4956 29.1216C22.4454 29.2745 22.3037 29.3775 22.1426 29.3775ZM12.8662 28.6336H21.1342C20.0767 27.592 19.3546 26.2391 19.089 24.7787H14.9109C14.6457 26.2391 13.9237 27.592 12.8662 28.6336Z" fill="#331B3B"/>
<path d="M22.9718 31.316H11.0282C10.2887 31.316 9.68721 30.7145 9.68721 29.975C9.68721 29.2355 10.2887 28.634 11.0282 28.634H22.9718C23.7113 28.634 24.3128 29.2355 24.3128 29.975C24.3128 30.7145 23.7113 31.316 22.9718 31.316ZM11.0282 29.3776C10.699 29.3776 10.4312 29.6454 10.4312 29.9746C10.4312 30.3038 10.699 30.5716 11.0282 30.5716H22.9718C23.3014 30.5716 23.5688 30.3038 23.5688 29.9746C23.5688 29.6454 23.301 29.3776 22.9718 29.3776H11.0282Z" fill="#331B3B"/>
<path d="M17.6327 22.468H16.3672C16.1619 22.468 15.9953 22.3017 15.9953 22.096C15.9953 21.8903 16.1619 21.724 16.3672 21.724H17.6327C17.8384 21.724 18.0047 21.8903 18.0047 22.096C18.0047 22.3017 17.8384 22.468 17.6327 22.468Z" fill="#331B3B"/>
<path d="M13.7582 14.0393C12.4592 14.0393 12.085 12.8832 11.7841 11.9543C11.4761 11.0032 11.2529 10.4203 10.5703 10.4203C10.365 10.4203 10.1983 10.2536 10.1983 10.0483C10.1983 9.84296 10.365 9.67632 10.5703 9.67632C11.2529 9.67632 11.4765 9.09342 11.7845 8.14227C12.0854 7.21306 12.4596 6.05731 13.7586 6.05731C13.9639 6.05731 14.1306 6.22396 14.1306 6.42929C14.1306 6.63463 13.9639 6.80127 13.7586 6.80127C13.0373 6.80127 12.8074 7.39793 12.4923 8.37141C12.3023 8.95877 12.0821 9.638 11.6145 10.0483C12.0821 10.4586 12.3023 11.1378 12.4923 11.7252C12.8074 12.6987 13.0373 13.2953 13.7586 13.2953C13.9639 13.2953 14.1306 13.462 14.1306 13.6673C14.1306 13.8726 13.9635 14.0393 13.7582 14.0393Z" fill="#331B3B"/>
<path d="M20.2418 14.0393C20.0361 14.0393 19.8699 13.8726 19.8699 13.6673C19.8699 13.462 20.0361 13.2953 20.2418 13.2953C20.9627 13.2953 21.193 12.6987 21.5081 11.7248C21.6981 11.1378 21.9183 10.4582 22.3859 10.0483C21.918 9.638 21.6978 8.95877 21.5081 8.37178C21.1926 7.39793 20.9627 6.80127 20.2418 6.80127C20.0361 6.80127 19.8699 6.63463 19.8699 6.42929C19.8699 6.22396 20.0361 6.05731 20.2418 6.05731C21.5408 6.05731 21.915 7.21343 22.2159 8.14227C22.5239 9.09342 22.7471 9.67632 23.4297 9.67632C23.6354 9.67632 23.8017 9.84296 23.8017 10.0483C23.8017 10.2536 23.6354 10.4203 23.4297 10.4203C22.7471 10.4203 22.5236 11.0032 22.2156 11.9543C21.915 12.8832 21.5408 14.0393 20.2418 14.0393Z" fill="#331B3B"/>
<path d="M15.5377 14.9034C15.4987 14.9034 15.4589 14.8971 15.4195 14.884C15.2249 14.8186 15.1196 14.6077 15.1851 14.4131L18.1907 5.44725C18.2562 5.25271 18.4671 5.14781 18.6616 5.21291C18.8566 5.27837 18.9618 5.48929 18.8964 5.68383L15.8908 14.6497C15.8383 14.8048 15.6932 14.9034 15.5377 14.9034Z" fill="#331B3B"/>
</svg>
